HIERARCHY
ROOT hips
{
  OFFSET 0 10.6860622 2.3727825e-15
  CHANNELS 6 Xposition Yposition Zposition Yrotation Xrotation Zrotation
  JOINT leftUpperLeg
  {
    OFFSET 0.6642549969 -0.9402397400000004 0
    CHANNELS 3 Yrotation Xrotation Zrotation
    JOINT leftLowerLeg
    {
      OFFSET 0 -3.997221335632195 0
      CHANNELS 3 Yrotation Xrotation Zrotation
      JOINT leftFoot
      {
        OFFSET -0.13777839790000004 -4.6145792000000005 -0.22186036399999998
        CHANNELS 3 Yrotation Xrotation Zrotation
        JOINT leftToes
        {
          OFFSET -0.03777410834999995 -0.9130806927000008 0.85230013
          CHANNELS 3 Yrotation Xrotation Zrotation
          End Site
          {
            OFFSET -0.03777410834999995 -0.9130806927000008 0.85230013
          }
        }
      }
    }
  }
  JOINT rightUpperLeg
  {
    OFFSET -0.6642778626 -0.9402397400000004 0
    CHANNELS 3 Yrotation Xrotation Zrotation
    JOINT rightLowerLeg
    {
      OFFSET 0 -3.997221452859387 0
      CHANNELS 3 Yrotation Xrotation Zrotation
      JOINT rightFoot
      {
        OFFSET 0.1377926176 -4.6145792000000005 -0.22185782299999995
        CHANNELS 3 Yrotation Xrotation Zrotation
        JOINT rightToes
        {
          OFFSET 0.037780746850000047 -0.9130806927000008 0.85230167
          CHANNELS 3 Yrotation Xrotation Zrotation
          End Site
          {
            OFFSET 0.037780746850000047 -0.9130806927000008 0.85230167
          }
        }
      }
    }
  }
  JOINT spine
  {
    OFFSET 0 0.13988381660000015 0
    CHANNELS 3 Yrotation Xrotation Zrotation
    JOINT chest
    {
      OFFSET 0 0.6191039003973773 0
      CHANNELS 3 Yrotation Xrotation Zrotation
      JOINT upperChest
      {
        OFFSET 0 0.9855186130586943 0
        CHANNELS 3 Yrotation Xrotation Zrotation
        JOINT leftShoulder
        {
          OFFSET 0.1807663869 1.5087829790000005 0
          CHANNELS 3 Yrotation Xrotation Zrotation
          JOINT leftUpperArm
          {
            OFFSET 0.5985063006419806 0 0
            CHANNELS 3 Yrotation Xrotation Zrotation
            JOINT leftLowerArm
            {
              OFFSET 2.2993332369501065 0 0
              CHANNELS 3 Yrotation Xrotation Zrotation
              JOINT leftHand
              {
                OFFSET 2.395047042602395 0 0
                CHANNELS 3 Yrotation Xrotation Zrotation
                JOINT leftIndexProximal
                {
                  OFFSET 0.5766295810000004 0.04556643899499946 0.17265095988184
                  CHANNELS 3 Yrotation Xrotation Zrotation
                  JOINT leftIndexIntermediate
                  {
                    OFFSET 0.2957229000000008 -0.019352197700001517 -0.007932640616999987
                    CHANNELS 3 Yrotation Xrotation Zrotation
                    JOINT leftIndexDistal
                    {
                      OFFSET 0.19008243099999922 -0.012484908149998475 -0.002786250786000012
                      CHANNELS 3 Yrotation Xrotation Zrotation
                      End Site
                      {
                        OFFSET 0.19008243099999922 -0.012484908149998475 -0.002786250786000012
                      }
                    }
                  }
                }
                JOINT leftMiddleProximal
                {
                  OFFSET 0.5834975091000001 0.0524350405149987 0.02204081888183999
                  CHANNELS 3 Yrotation Xrotation Zrotation
                  JOINT leftMiddleIntermediate
                  {
                    OFFSET 0.33880573540000003 -0.019871473270000717 -0.00000971183179999946
                    CHANNELS 3 Yrotation Xrotation Zrotation
                    JOINT leftMiddleDistal
                    {
                      OFFSET 0.20676022730000088 -0.012221336379999448 0.0001471936708000235
                      CHANNELS 3 Yrotation Xrotation Zrotation
                      End Site
                      {
                        OFFSET 0.20676022730000088 -0.012221336379999448 0.0001471936708000235
                      }
                    }
                  }
                }
                JOINT leftLittleProximal
                {
                  OFFSET 0.5344154683999995 -0.012880921405001189 -0.24414037221816004
                  CHANNELS 3 Yrotation Xrotation Zrotation
                  JOINT leftLittleIntermediate
                  {
                    OFFSET 0.21758961730000093 -0.011650919939999227 0.011893592810000034
                    CHANNELS 3 Yrotation Xrotation Zrotation
                    JOINT leftLittleDistal
                    {
                      OFFSET 0.1475273964999999 -0.008152365682999818 0.006001092492999946
                      CHANNELS 3 Yrotation Xrotation Zrotation
                      End Site
                      {
                        OFFSET 0.1475273964999999 -0.008152365682999818 0.006001092492999946
                      }
                    }
                  }
                }
                JOINT leftRingProximal
                {
                  OFFSET 0.5799399463000003 0.026911854694997794 -0.12150566991816003
                  CHANNELS 3 Yrotation Xrotation Zrotation
                  JOINT leftRingIntermediate
                  {
                    OFFSET 0.26167887460000006 -0.013480186499999602 0.010996293000000053
                    CHANNELS 3 Yrotation Xrotation Zrotation
                    JOINT leftRingDistal
                    {
                      OFFSET 0.17667108799999987 -0.008990287899999228 0.0055541023999999065
                      CHANNELS 3 Yrotation Xrotation Zrotation
                      End Site
                      {
                        OFFSET 0.17667108799999987 -0.008990287899999228 0.0055541023999999065
                      }
                    }
                  }
                }
                JOINT leftThumbProximal
                {
                  OFFSET 0.11018806699999972 -0.09448718900500053 0.17047963138184
                  CHANNELS 3 Yrotation Xrotation Zrotation
                  JOINT leftThumbIntermediate
                  {
                    OFFSET 0.31062601459999983 -0.08126270900000132 0.15443142000000007
                    CHANNELS 3 Yrotation Xrotation Zrotation
                    JOINT leftThumbDistal
                    {
                      OFFSET 0.21627175790000086 -0.08833193599999878 0.018771167799999988
                      CHANNELS 3 Yrotation Xrotation Zrotation
                      End Site
                      {
                        OFFSET 0.21627175790000086 -0.08833193599999878 0.018771167799999988
                      }
                    }
                  }
                }
              }
            }
          }
        }
        JOINT neck
        {
          OFFSET 0 1.5463305265074576 0
          CHANNELS 3 Yrotation Xrotation Zrotation
          JOINT head
          {
            OFFSET 0 0.8456443600000344 0
            CHANNELS 3 Yrotation Xrotation Zrotation
            JOINT leftEye
            {
              OFFSET 0.30408573140000006 0.5104519199999995 0.1276382305
              CHANNELS 3 Yrotation Xrotation Zrotation
              End Site
              {
                OFFSET 0.30408573140000006 0.5104519199999995 0.1276382305
              }
            }
            JOINT rightEye
            {
              OFFSET -0.30409491089999996 0.5104519199999995 0.1276379445
              CHANNELS 3 Yrotation Xrotation Zrotation
              End Site
              {
                OFFSET -0.30409491089999996 0.5104519199999995 0.1276379445
              }
            }
            JOINT jaw
            {
              OFFSET -3.155239131000001e-7 -0.11984121820000082 0.60178107
              CHANNELS 3 Yrotation Xrotation Zrotation
              End Site
              {
                OFFSET -3.155239131000001e-7 -0.11984121820000082 0.60178107
              }
            }
          }
        }
        JOINT rightShoulder
        {
          OFFSET -0.1807303465 1.5087829790000005 0
          CHANNELS 3 Yrotation Xrotation Zrotation
          JOINT rightUpperArm
          {
            OFFSET -0.5985063796536958 0 0
            CHANNELS 3 Yrotation Xrotation Zrotation
            JOINT rightLowerArm
            {
              OFFSET -2.2993322059002854 0 0
              CHANNELS 3 Yrotation Xrotation Zrotation
              JOINT rightHand
              {
                OFFSET -2.395045314457259 0 0
                CHANNELS 3 Yrotation Xrotation Zrotation
                JOINT rightIndexProximal
                {
                  OFFSET -0.5764487688300002 0.0441371204405987 0.17361932004999997
                  CHANNELS 3 Yrotation Xrotation Zrotation
                  JOINT rightIndexIntermediate
                  {
                    OFFSET -0.29573011380000047 -0.01934826376999843 -0.007698921482999974
                    CHANNELS 3 Yrotation Xrotation Zrotation
                    JOINT rightIndexDistal
                    {
                      OFFSET -0.19008373999999884 -0.012503266380000655 -0.0026365778999999897
                      CHANNELS 3 Yrotation Xrotation Zrotation
                      End Site
                      {
                        OFFSET -0.19008373999999884 -0.012503266380000655 -0.0026365778999999897
                      }
                    }
                  }
                }
                JOINT rightMiddleProximal
                {
                  OFFSET -0.5834852037300005 0.05211639405060153 0.02307162440000001
                  CHANNELS 3 Yrotation Xrotation Zrotation
                  JOINT rightMiddleIntermediate
                  {
                    OFFSET -0.33880114510000003 -0.019952774050000954 0.0002455003561999819
                    CHANNELS 3 Yrotation Xrotation Zrotation
                    JOINT rightMiddleDistal
                    {
                      OFFSET -0.20675694929999955 -0.012273788999999091 0.00030209124000002766
                      CHANNELS 3 Yrotation Xrotation Zrotation
                      End Site
                      {
                        OFFSET -0.20675694929999955 -0.012273788999999091 0.00030209124000002766
                      }
                    }
                  }
                }
                JOINT rightLittleProximal
                {
                  OFFSET -0.5346811737299992 -0.011214256288399227 -0.24363941305000003
                  CHANNELS 3 Yrotation Xrotation Zrotation
                  JOINT rightLittleIntermediate
                  {
                    OFFSET -0.21757715980000092 -0.011771559690000988 0.01201554387
                    CHANNELS 3 Yrotation Xrotation Zrotation
                    JOINT rightLittleDistal
                    {
                      OFFSET -0.1475201849000004 -0.00822055339600003 0.006082065407000015
                      CHANNELS 3 Yrotation Xrotation Zrotation
                      End Site
                      {
                        OFFSET -0.1475201849000004 -0.00822055339600003 0.006082065407000015
                      }
                    }
                  }
                }
                JOINT rightRingProximal
                {
                  OFFSET -0.5800810755299999 0.027657985680600072 -0.12066365025000003
                  CHANNELS 3 Yrotation Xrotation Zrotation
                  JOINT rightRingIntermediate
                  {
                    OFFSET -0.26166445029999974 -0.013623118409999302 0.011164098990000045
                    CHANNELS 3 Yrotation Xrotation Zrotation
                    JOINT rightRingDistal
                    {
                      OFFSET -0.17666387530000027 -0.009072900100000503 0.005668185599999959
                      CHANNELS 3 Yrotation Xrotation Zrotation
                      End Site
                      {
                        OFFSET -0.17666387530000027 -0.009072900100000503 0.005668185599999959
                      }
                    }
                  }
                }
                JOINT rightThumbProximal
                {
                  OFFSET -0.10997596379000074 -0.09577489355940072 0.16989765924999997
                  CHANNELS 3 Yrotation Xrotation Zrotation
                  JOINT rightThumbIntermediate
                  {
                    OFFSET -0.31036620999999986 -0.08229339117999834 0.15440884469999996
                    CHANNELS 3 Yrotation Xrotation Zrotation
                    JOINT rightThumbDistal
                    {
                      OFFSET -0.21631306399999906 -0.08825326400000111 0.018656797720000014
                      CHANNELS 3 Yrotation Xrotation Zrotation
                      End Site
                      {
                        OFFSET -0.21631306399999906 -0.08825326400000111 0.018656797720000014
                      }
                    }
                  }
                }
              }
            }
          }
        }
      }
    }
  }
}
MOTION
Frames: 9
Frame Time: 0.03333333333333333
0 -8.462476217525241 -2.148467517368393 0 3.999746914459894 0 -40.12028726610574 -43.18627658997083 46.940988736400776 174.4666127662085 43.37940420771209 171.97136525365764 0.000002559263633402947 66.9996088288033 0.000001355807921723583 0 0 0 40.11796681844399 -43.18659040385774 -46.94408396397677 -174.4666127662085 43.37940420771209 -171.97136525365764 0.000002559263633402947 66.9996088288033 0.000001355807921723583 0 0 0 27.186824331405045 67.52697071018088 3.8372979711569184 -0.17333543678372032 20.28038446318662 5.937074791630688 0 0 0 -8.81125277219716 -3.5470989768037997 2.7959201582724025 -61.51725933005742 29.597339477758794 67.1380831686087 -8.769201263682778 0 0 0.9380217903882859 -48.661860480876996 1.5189676071066518 0 0 0 0 0 0 0 0 0 0 0 0 0 0 0 0 0 0 0 0 0 0 0 0 0 0 0 0 0 0 0 0 0 0 0 0 0 0 0 0 0 0 0 0 0 23.77493961116035 -41.940347979758315 -16.409076235096336 -32.38366099045246 15.903771188935984 -9.859334599110541 0 0 0 0 0 0 0 0 0 0 -8.474666291380448 0 133.53895378711096 -40.99736177922679 -52.51428823381678 17.816233928733595 19.91843789325007 5.317737315757855 -0.8309522872148363 30.363782482576013 -11.56612397404479 0 0 0 0 0 0 0 0 0 0 0 0 0 0 0 0 0 0 0 0 0 0 0 0 0 0 0 0 0 0 0 0 0 0 0 0 0 0 0 0 0 0 0 0 0
0 -8.462476217525241 -2.148467517368393 0 3.99974819824721 0 -40.12028726610574 -43.18627658997083 46.940988736400776 174.4666127662085 43.37940420771209 171.97136525365764 0.000002559263633402947 66.9996088288033 0.000001355807921723583 0 0 0 40.11796681844399 -43.18659040385774 -46.94408396397677 -174.4666127662085 43.37940420771209 -171.97136525365764 0.000002559263633402947 66.9996088288033 0.000001355807921723583 0 0 0 27.3803816710546 67.68152770299845 4.046652922965904 -0.1733102341263785 20.25636071030944 5.937153095143531 0 0 0 -9.073614853446603 -3.3914294072447078 2.8683494638677742 -61.44939270777655 29.456722240985584 67.4351324910757 -8.246658266372576 0 0 0.7140584793181954 -48.99507771973416 1.3944555329428214 0 0 0 0 0 0 0 0 0 0 0 0 0 0 0 0 0 0 0 0 0 0 0 0 0 0 0 0 0 0 0 0 0 0 0 0 0 0 0 0 0 0 0 0 0 23.067115204994273 -42.092819276277794 -15.935318191152092 -32.32993421405774 15.603381155572558 -9.661664270750288 0 0 0 0 0 0 0 0 0 0 -8.474666291380448 0 133.70532731000256 -40.832739909760804 -52.74283437937326 17.816233928733595 19.91843789325007 5.317737315757855 -0.8309525964010657 30.363782482576013 -11.566124943451985 0 0 0 0 0 0 0 0 0 0 0 0 0 0 0 0 0 0 0 0 0 0 0 0 0 0 0 0 0 0 0 0 0 0 0 0 0 0 0 0 0 0 0 0 0
0 -8.462476217525241 -2.148467517368393 0 3.99974819824721 0 -40.12028726610574 -43.18627658997083 46.940988736400776 174.4666127662085 43.37940420771209 171.97136525365764 0.000002559263633402947 66.9996088288033 0.000001355807921723583 0 0 0 40.11796681844399 -43.18659040385774 -46.94408396397677 -174.4666127662085 43.37940420771209 -171.97136525365764 0.000002559263633402947 66.9996088288033 0.000001355807921723583 0 0 0 27.775842311507077 67.98980272692133 4.473687758465152 -0.17325991182292963 20.20831161220525 5.937308945276324 0 0 0 -9.59745205260588 -3.0792041140043436 3.010981189697297 -61.31649887332923 29.174669788253254 68.0272428655093 -7.202525781717567 0 0 0.2652353909711809 -49.66197037966946 1.1491012113748869 0 0 0 0 0 0 0 0 0 0 0 0 0 0 0 0 0 0 0 0 0 0 0 0 0 0 0 0 0 0 0 0 0 0 0 0 0 0 0 0 0 0 0 0 0 21.637979287615103 -42.38528699909557 -14.974640405104399 -32.22581704301034 15.001470713575776 -9.267647519275561 0 0 0 0 0 0 0 0 0 0 -8.474666291380448 0 134.03423872925924 -40.50207409914126 -53.19633265651109 17.816233928733595 19.91843789325007 5.317737315757855 -0.8309505557719511 30.363778524575967 -11.566122211063782 0 0 0 0 0 0 0 0 0 0 0 0 0 0 0 0 0 0 0 0 0 0 0 0 0 0 0 0 0 0 0 0 0 0 0 0 0 0 0 0 0 0 0 0 0
0 -8.462476217525241 -2.148467517368393 0 3.99974819824721 0 -40.12028726610574 -43.18627658997083 46.940988736400776 174.4666127662085 43.37940420771209 171.97136525365764 0.000002559263633402947 66.9996088288033 0.000001355807921723583 0 0 0 40.11796681844399 -43.18659040385774 -46.94408396397677 -174.4666127662085 43.37940420771209 -171.97136525365764 0.000002559263633402947 66.9996088288033 0.000001355807921723583 0 0 0 27.977847448910484 68.14350261651298 4.691460784239303 -0.17323483155280917 20.184288078298007 5.9373873969767414 0 0 0 -9.858924313293132 -2.9226683592567464 3.0811830533122735 -61.25144997634203 29.033244887910104 68.322310169709 -6.6810244123524924 0 0 0.04035729804804286 -49.99558467975373 1.028304664172991 0 0 0 0 0 0 0 0 0 0 0 0 0 0 0 0 0 0 0 0 0 0 0 0 0 0 0 0 0 0 0 0 0 0 0 0 0 0 0 0 0 0 0 0 0 20.91689653799044 -42.52512994779933 -14.487919686479216 -32.175428114105614 14.699979352641053 -9.071294407954081 0 0 0 0 0 0 0 0 0 0 -8.474666291380448 0 134.19674558459772 -40.33603891465798 -53.42124498560414 17.816233928733595 19.91843789325007 5.317737315757855 -0.8309512978189021 30.363778524575967 -11.566123004637591 0 0 0 0 0 0 0 0 0 0 0 0 0 0 0 0 0 0 0 0 0 0 0 0 0 0 0 0 0 0 0 0 0 0 0 0 0 0 0 0 0 0 0 0 0
0 -8.462476217525241 -2.148467517368393 0 3.99974819824721 0 -40.12028726610574 -43.18627658997083 46.940988736400776 174.4666127662085 43.37940420771209 171.97136525365764 0.000002559263633402947 66.9996088288033 0.000001355807921723583 0 0 0 40.11796681844399 -43.18659040385774 -46.94408396397677 -174.4666127662085 43.37940420771209 -171.97136525365764 0.000002559263633402947 66.9996088288033 0.000001355807921723583 0 0 0 28.18278887185017 68.29690747606122 4.912163334671922 -0.17320976680067654 20.16026460877564 5.93746567251616 0 0 0 -10.120168289484905 -2.765814237527785 3.1506593457836938 -61.1873234203501 28.89152981550023 68.61679199617303 -6.159523086162246 0 0 -0.18499420621954765 -50.32949696259997 0.9087137290070666 0 0 0 0 0 0 0 0 0 0 0 0 0 0 0 0 0 0 0 0 0 0 0 0 0 0 0 0 0 0 0 0 0 0 0 0 0 0 0 0 0 0 0 0 0 20.19262954920361 -42.66043349875047 -13.997769231487055 -32.126178118043825 14.39832273773937 -8.875483651087311 0 0 0 0 0 0 0 0 0 0 -8.474666291380448 0 134.35800045502896 -40.16951744599177 -53.64499200249129 17.816233928733595 19.91843789325007 5.317737315757855 -0.8309520398658528 30.363782482576013 -11.56612397404479 0 0 0 0 0 0 0 0 0 0 0 0 0 0 0 0 0 0 0 0 0 0 0 0 0 0 0 0 0 0 0 0 0 0 0 0 0 0 0 0 0 0 0 0 0
0 -8.462476217525241 -2.148467517368393 0 3.99974819824721 0 -40.12028726610574 -43.18627658997083 46.940988736400776 174.4666127662085 43.37940420771209 171.97136525365764 0.000002559263633402947 66.9996088288033 0.000001355807921723583 0 0 0 40.11796681844399 -43.18659040385774 -46.94408396397677 -174.4666127662085 43.37940420771209 -171.97136525365764 0.000002559263633402947 66.9996088288033 0.000001355807921723583 0 0 0 28.6016588209766 68.60279372124894 5.362532589453087 -0.17315977679845873 20.112210572144473 5.937621995824337 0 0 0 -10.641759633371292 -2.4513011585059408 3.2873739611636115 -61.06189094919466 28.60737825842916 69.20375487556612 -5.117820217640472 0 0 -0.6367687027061729 -50.997587059456826 0.6734550776958287 0 0 0 0 0 0 0 0 0 0 0 0 0 0 0 0 0 0 0 0 0 0 0 0 0 0 0 0 0 0 0 0 0 0 0 0 0 0 0 0 0 0 0 0 0 18.73185987110987 -42.91777374703184 -13.005488934141095 -32.03097769497019 13.794016255129439 -8.485103740514965 0 0 0 0 0 0 0 0 0 0 -8.474666291380448 0 134.67672260311357 -39.835157738563964 -54.08890159672185 17.81623219963861 19.91843789325007 5.317736411568909 -0.8309525964010657 30.363782482576013 -11.566124943451985 0 0 0 0 0 0 0 0 0 0 0 0 0 0 0 0 0 0 0 0 0 0 0 0 0 0 0 0 0 0 0 0 0 0 0 0 0 0 0 0 0 0 0 0 0
0 -8.462476217525241 -2.148467517368393 0 3.99974819824721 0 -40.12028726610574 -43.18627658997083 46.940988736400776 174.4666127662085 43.37940420771209 171.97136525365764 0.000002559263633402947 66.9996088288033 0.000001355807921723583 0 0 0 40.11796681844399 -43.18659040385774 -46.94408396397677 -174.4666127662085 43.37940420771209 -171.97136525365764 0.000002559263633402947 66.9996088288033 0.000001355807921723583 0 0 0 28.815691853418333 68.75524581193442 5.592297950609979 -0.17313483727583875 20.08818727138784 5.937700419908303 0 0 0 -10.902099470208144 -2.29366118158201 3.3546109506915593 -61.0005722037875 28.46494587346312 69.49623029731583 -4.59770273994648 0 0 -0.8632151285745098 -51.331676962387384 0.5578376805741974 0 0 0 0 0 0 0 0 0 0 0 0 0 0 0 0 0 0 0 0 0 0 0 0 0 0 0 0 0 0 0 0 0 0 0 0 0 0 0 0 0 0 0 0 0 17.995624450777775 -43.03966291752422 -12.503597897605179 -31.985020292689907 13.491394392787548 -8.290523970343937 0 0 0 0 0 0 0 0 0 0 -8.474666291380448 0 134.83418449354667 -39.66731864736976 -54.30906703517842 17.816233928733595 19.91843789325007 5.317736863663382 -0.8309515451678856 30.363778524575967 -11.56612397404479 0 0 0 0 0 0 0 0 0 0 0 0 0 0 0 0 0 0 0 0 0 0 0 0 0 0 0 0 0 0 0 0 0 0 0 0 0 0 0 0 0 0 0 0 0
0 -8.462476217525241 -2.148467517368393 0 3.99974819824721 0 -40.12028726610574 -43.18627658997083 46.940988736400776 174.4666127662085 43.37940420771209 171.97136525365764 0.000002559263633402947 66.9996088288033 0.000001355807921723583 0 0 0 40.11796681844399 -43.18659040385774 -46.94408396397677 -174.4666127662085 43.37940420771209 -171.97136525365764 0.000002559263633402947 66.9996088288033 0.000001355807921723583 0 0 0 29.032893585325006 68.90738196488908 5.825227195329545 -0.17310994934571233 20.064162200141975 5.937778216067357 0 0 0 -11.16222622406598 -2.13571754627667 3.4211236373390257 -60.94016427064275 28.32224159640769 69.78814122534162 -4.077585059551758 0 0 -1.0902408324468926 -51.66604974175081 0.4434990397998288 0 0 0 0 0 0 0 0 0 0 0 0 0 0 0 0 0 0 0 0 0 0 0 0 0 0 0 0 0 0 0 0 0 0 0 0 0 0 0 0 0 0 0 0 0 17.25651426368602 -43.15681337218623 -11.998622200515669 -31.94017400186529 13.18862325074514 -8.096438095729559 0 0 0 0 0 0 0 0 0 0 -8.474666291380448 0 134.99042684677156 -39.499018820364185 -54.52809762447195 17.816233928733595 19.91843789325007 5.317737315757855 -0.8309505557719511 30.363778524575967 -11.566122211063782 0 0 0 0 0 0 0 0 0 0 0 0 0 0 0 0 0 0 0 0 0 0 0 0 0 0 0 0 0 0 0 0 0 0 0 0 0 0 0 0 0 0 0 0 0
0 -8.462476217525241 -2.148467517368393 0 3.99974819824721 0 -40.12028726610574 -43.18627658997083 46.940988736400776 174.4666127662085 43.37940420771209 171.97136525365764 0.000002559263633402947 66.9996088288033 0.000001355807921723583 0 0 0 40.11796681844399 -43.18659040385774 -46.94408396397677 -174.4666127662085 43.37940420771209 -171.97136525365764 0.000002559263633402947 66.9996088288033 0.000001355807921723583 0 0 0 29.477004699364304 69.21062663617265 6.300758769402475 -0.17306024802480238 20.016110367184094 5.937934861475838 0 0 0 -11.68156456630259 -1.819109633875176 3.551901198108411 -60.82212680494059 28.03618651282281 70.36997571726121 -3.038988928817771 0 0 -1.5455697235286778 -52.334804684299755 0.21902564932166993 0 0 0 0 0 0 0 0 0 0 0 0 0 0 0 0 0 0 0 0 0 0 0 0 0 0 0 0 0 0 0 0 0 0 0 0 0 0 0 0 0 0 0 0 0 15.767523439157554 -43.377106601814575 -10.978090192702785 -31.85374963087144 12.582222833389112 -7.709429924002547 0 0 0 0 0 0 0 0 0 0 -8.474666291380448 0 135.29921303666168 -39.161154624572916 -54.96268482082553 17.81623219963861 19.91843789325007 5.317736411568909 -0.8309520398658528 30.363782482576013 -11.56612397404479 0 0 0 0 0 0 0 0 0 0 0 0 0 0 0 0 0 0 0 0 0 0 0 0 0 0 0 0 0 0 0 0 0 0 0 0 0 0 0 0 0 0 0 0 0
